<svg width="67" height="46" viewBox="0 0 67 46" fill="none" xmlns="http://www.w3.org/2000/svg">
<path d="M30.8965 22.832C30.8965 21.5894 31.9038 20.582 33.1465 20.582C34.3891 20.582 35.3965 21.5894 35.3965 22.832C35.3965 24.0747 34.3891 25.082 33.1465 25.082C31.9038 25.082 30.8965 24.0747 30.8965 22.832Z" fill="white"/>
<path fill-rule="evenodd" clip-rule="evenodd" d="M23.1465 22.832C23.1465 24.4714 23.5714 25.0235 24.4214 26.1277C26.1184 28.3325 28.9646 30.832 33.1465 30.832C37.3284 30.832 40.1745 28.3325 41.8716 26.1277C42.7215 25.0235 43.1465 24.4714 43.1465 22.832C43.1465 21.1927 42.7215 20.6406 41.8716 19.5364C40.1745 17.3316 37.3284 14.832 33.1465 14.832C28.9646 14.832 26.1184 17.3316 24.4214 19.5364C23.5714 20.6406 23.1465 21.1927 23.1465 22.832ZM33.1465 19.082C31.0754 19.082 29.3965 20.761 29.3965 22.832C29.3965 24.9031 31.0754 26.582 33.1465 26.582C35.2176 26.582 36.8965 24.9031 36.8965 22.832C36.8965 20.761 35.2176 19.082 33.1465 19.082Z" fill="white"/>
<g opacity="0.4">
<path d="M13.0021 0.642247C13.9043 1.49737 13.9028 2.88242 12.9988 3.73584C7.82311 8.62202 4.625 15.3717 4.625 22.8321C4.625 30.3797 7.89837 37.2002 13.1814 42.0992C14.0934 42.945 14.1079 44.3299 13.2139 45.1927C12.3198 46.0554 10.8557 46.0691 9.94365 45.2234C3.8099 39.5354 0 31.6027 0 22.8321C0 14.1632 3.72222 6.31249 9.7317 0.639163C10.6357 -0.214257 12.0999 -0.212876 13.0021 0.642247Z" fill="white"/>
<path d="M53.5464 0.853367C54.4584 0.00762779 55.9225 0.021393 56.8166 0.884113C62.6753 6.53738 66.2917 14.2874 66.2917 22.8321C66.2917 31.4784 62.5889 39.3108 56.607 44.9806C55.7048 45.8358 54.2406 45.8371 53.3366 44.9837C52.4326 44.1303 52.4312 42.7452 53.3333 41.8901C58.4852 37.007 61.6667 30.2731 61.6667 22.8321C61.6667 15.4783 58.5594 8.81541 53.5139 3.94681C52.6198 3.08409 52.6344 1.69911 53.5464 0.853367Z" fill="white"/>
</g>
<g opacity="0.8">
<path d="M21.7666 9.67085C22.6393 10.553 22.5908 11.9373 21.6582 12.7627C18.7324 15.3527 16.959 18.8953 16.959 22.7803C16.959 26.7104 18.7741 30.2908 21.7615 32.8884C22.7017 33.706 22.7633 35.0898 21.899 35.9792C21.0347 36.8687 19.5718 36.9269 18.6315 36.1093C14.7688 32.7506 12.334 28.0308 12.334 22.7803C12.334 17.5908 14.7127 12.9192 18.498 9.56832C19.4306 8.74283 20.894 8.78874 21.7666 9.67085Z" fill="white"/>
<path d="M44.687 9.78175C45.5698 8.9087 47.0336 8.87792 47.9566 9.71299C51.648 13.0529 53.959 17.6655 53.959 22.7803C53.959 27.9561 51.5927 32.617 47.8245 35.966C46.8937 36.7932 45.4303 36.7501 44.5557 35.8696C43.6812 34.9891 43.7268 33.6048 44.6576 32.7775C47.5698 30.1893 49.334 26.6552 49.334 22.7803C49.334 18.9505 47.6108 15.4543 44.7597 12.8746C43.8368 12.0395 43.8042 10.6548 44.687 9.78175Z" fill="white"/>
</g>
</svg>
